<?xml version="1.0" encoding="us-ascii" standalone="no"?><svg xmlns="http://www.w3.org/2000/svg" xmlns:xlink="http://www.w3.org/1999/xlink" contentStyleType="text/css" height="354px" preserveAspectRatio="none" style="width:215px;height:354px;background:#FFFFFF;" version="1.1" viewBox="0 0 215 354" width="215px" zoomAndPan="magnify"><defs/><g><!--class Studente--><g id="elem_Studente"><rect codeLine="1" fill="#F1F1F1" height="67.0679" id="Studente" rx="2.5" ry="2.5" style="stroke:#181818;stroke-width:0.5;" width="138" x="7" y="7"/><ellipse cx="42.25" cy="23" fill="#ADD1B2" rx="11" ry="11" style="stroke:#181818;stroke-width:1.0;"/><path d="M42.3594,18.5313 Q41.4375,18.5313 40.7031,18.8438 Q39.9844,19.1563 39.4844,19.75 Q38.9844,20.3281 38.7031,21.2031 Q38.4375,22.0781 38.4375,23.1719 Q38.4375,24.6094 38.875,25.6563 Q39.3281,26.7031 40.1719,27.25 Q41.0313,27.7969 42.3438,27.7969 Q43.125,27.7969 43.8125,27.6719 Q44.5156,27.5313 45.5156,27.2188 L45.5156,29.0938 Q44.6563,29.4219 43.8906,29.5469 Q43.1406,29.6719 42.125,29.6719 Q40.2031,29.6719 38.8906,28.875 Q37.5938,28.0625 36.9375,26.5938 Q36.2813,25.1094 36.2813,23.1406 Q36.2813,21.7188 36.6719,20.5469 Q37.0781,19.3594 37.8594,18.4844 Q38.6406,17.6094 39.7813,17.1406 Q40.9219,16.6563 42.3906,16.6563 Q43.3438,16.6563 44.2344,16.8594 Q45.1406,17.0469 46.0781,17.5156 L45.25,19.2969 Q44.4688,18.9219 43.8125,18.7344 Q43.1563,18.5313 42.3594,18.5313 Z " fill="#000000"/><text fill="#000000" font-family="sans-serif" font-size="14" lengthAdjust="spacing" textLength="61" x="60.75" y="28.432">Studente</text><line style="stroke:#181818;stroke-width:0.5;" x1="8" x2="144" y1="39" y2="39"/><rect fill="none" height="6" style="stroke:#C82930;stroke-width:1.0;" width="6" x="15" y="51.034"/><text fill="#000000" font-family="sans-serif" font-size="14" lengthAdjust="spacing" textLength="112" x="27" y="57.9659">matricola: String</text><line style="stroke:#181818;stroke-width:0.5;" x1="8" x2="144" y1="66.0679" y2="66.0679"/></g><!--class Corso--><g id="elem_Corso"><rect codeLine="4" fill="#F1F1F1" height="67.0679" id="Corso" rx="2.5" ry="2.5" style="stroke:#181818;stroke-width:0.5;" width="118" x="17" y="280.2"/><ellipse cx="53.6" cy="296.2" fill="#ADD1B2" rx="11" ry="11" style="stroke:#181818;stroke-width:1.0;"/><path d="M53.7094,291.7313 Q52.7875,291.7313 52.0531,292.0438 Q51.3344,292.3563 50.8344,292.95 Q50.3344,293.5281 50.0531,294.4031 Q49.7875,295.2781 49.7875,296.3719 Q49.7875,297.8094 50.225,298.8563 Q50.6781,299.9031 51.5219,300.45 Q52.3813,300.9969 53.6938,300.9969 Q54.475,300.9969 55.1625,300.8719 Q55.8656,300.7313 56.8656,300.4188 L56.8656,302.2938 Q56.0063,302.6219 55.2406,302.7469 Q54.4906,302.8719 53.475,302.8719 Q51.5531,302.8719 50.2406,302.075 Q48.9438,301.2625 48.2875,299.7938 Q47.6313,298.3094 47.6313,296.3406 Q47.6313,294.9188 48.0219,293.7469 Q48.4281,292.5594 49.2094,291.6844 Q49.9906,290.8094 51.1313,290.3406 Q52.2719,289.8563 53.7406,289.8563 Q54.6938,289.8563 55.5844,290.0594 Q56.4906,290.2469 57.4281,290.7156 L56.6,292.4969 Q55.8188,292.1219 55.1625,291.9344 Q54.5063,291.7313 53.7094,291.7313 Z " fill="#000000"/><text fill="#000000" font-family="sans-serif" font-size="14" lengthAdjust="spacing" textLength="38" x="72.4" y="301.632">Corso</text><line style="stroke:#181818;stroke-width:0.5;" x1="18" x2="134" y1="312.2" y2="312.2"/><rect fill="none" height="6" style="stroke:#C82930;stroke-width:1.0;" width="6" x="25" y="324.234"/><text fill="#000000" font-family="sans-serif" font-size="14" lengthAdjust="spacing" textLength="92" x="37" y="331.1659">codice: String</text><line style="stroke:#181818;stroke-width:0.5;" x1="18" x2="134" y1="339.2679" y2="339.2679"/></g><!--class Esame--><g id="elem_Esame"><rect codeLine="7" fill="#F1F1F1" height="86.1358" id="Esame" rx="2.5" ry="2.5" style="stroke:#181818;stroke-width:0.5;" width="95" x="113.5" y="134.07"/><ellipse cx="137.05" cy="150.07" fill="#ADD1B2" rx="11" ry="11" style="stroke:#181818;stroke-width:1.0;"/><path d="M137.1594,145.6013 Q136.2375,145.6013 135.5031,145.9138 Q134.7844,146.2263 134.2844,146.82 Q133.7844,147.3981 133.5031,148.2731 Q133.2375,149.1481 133.2375,150.2419 Q133.2375,151.6794 133.675,152.7263 Q134.1281,153.7731 134.9719,154.32 Q135.8313,154.8669 137.1438,154.8669 Q137.925,154.8669 138.6125,154.7419 Q139.3156,154.6013 140.3156,154.2888 L140.3156,156.1638 Q139.4563,156.4919 138.6906,156.6169 Q137.9406,156.7419 136.925,156.7419 Q135.0031,156.7419 133.6906,155.945 Q132.3938,155.1325 131.7375,153.6638 Q131.0813,152.1794 131.0813,150.2106 Q131.0813,148.7888 131.4719,147.6169 Q131.8781,146.4294 132.6594,145.5544 Q133.4406,144.6794 134.5813,144.2106 Q135.7219,143.7263 137.1906,143.7263 Q138.1438,143.7263 139.0344,143.9294 Q139.9406,144.1169 140.8781,144.5856 L140.05,146.3669 Q139.2688,145.9919 138.6125,145.8044 Q137.9563,145.6013 137.1594,145.6013 Z " fill="#000000"/><text fill="#000000" font-family="sans-serif" font-size="14" lengthAdjust="spacing" textLength="44" x="152.95" y="155.502">Esame</text><line style="stroke:#181818;stroke-width:0.5;" x1="114.5" x2="207.5" y1="166.07" y2="166.07"/><rect fill="none" height="6" style="stroke:#C82930;stroke-width:1.0;" width="6" x="121.5" y="178.104"/><text fill="#000000" font-family="sans-serif" font-size="14" lengthAdjust="spacing" textLength="54" x="133.5" y="185.0359">voto: int</text><rect fill="none" height="6" style="stroke:#C82930;stroke-width:1.0;" width="6" x="121.5" y="197.1719"/><text fill="#000000" font-family="sans-serif" font-size="14" lengthAdjust="spacing" textLength="69" x="133.5" y="204.1039">data: Date</text><line style="stroke:#181818;stroke-width:0.5;" x1="114.5" x2="207.5" y1="212.2058" y2="212.2058"/></g><ellipse cx="76" cy="177.13" fill="#181818" rx="2" ry="2" style="stroke:#181818;stroke-width:1.0;"/><!--link Studente to apoint5--><g id="link_Studente_apoint5"><path d="M76,74.46 C76,111.2 76,166.61 76,175.04 " fill="none" id="Studente-apoint5" style="stroke:#181818;stroke-width:1.0;"/></g><!--link apoint5 to Corso--><g id="link_apoint5_Corso"><path d="M76,178.99 C76,186.58 76,242.75 76,279.85 " fill="none" id="apoint5-Corso" style="stroke:#181818;stroke-width:1.0;"/></g><!--link apoint5 to Esame--><g id="link_apoint5_Esame"><path d="M78.32,177.13 C89.95,177.13 101.58,177.13 113.2,177.13 " fill="none" id="apoint5-Esame" style="stroke:#181818;stroke-width:1.0;stroke-dasharray:7.0,7.0;"/></g><!--SRC=[Iyv9B2vM22ufJKdDAqbLgEPI009TXTp4agBCvFoSH2kWN55cNZfNBLSoMAbpVb5nFbnTSdvAPd8gXYBNuiHSX65b-INvLWgPUILGVafY2T1SbyIILA063PZTEX2ZDHNqz23w0G00]--></g></svg>