<?xml version="1.0" encoding="us-ascii" standalone="no"?><svg xmlns="http://www.w3.org/2000/svg" xmlns:xlink="http://www.w3.org/1999/xlink" contentStyleType="text/css" height="246px" preserveAspectRatio="none" style="width:143px;height:246px;background:#FFFFFF;" version="1.1" viewBox="0 0 143 246" width="143px" zoomAndPan="magnify"><defs/><g><!--class Studente--><g id="elem_Studente"><rect codeLine="3" fill="#F1F1F1" height="86.1358" id="Studente" rx="2.5" ry="2.5" style="stroke:#181818;stroke-width:0.5;" width="129" x="7" y="7"/><ellipse cx="38.2" cy="23" fill="#ADD1B2" rx="11" ry="11" style="stroke:#181818;stroke-width:1.0;"/><path d="M38.3094,18.5313 Q37.3875,18.5313 36.6531,18.8438 Q35.9344,19.1563 35.4344,19.75 Q34.9344,20.3281 34.6531,21.2031 Q34.3875,22.0781 34.3875,23.1719 Q34.3875,24.6094 34.825,25.6563 Q35.2781,26.7031 36.1219,27.25 Q36.9813,27.7969 38.2938,27.7969 Q39.075,27.7969 39.7625,27.6719 Q40.4656,27.5313 41.4656,27.2188 L41.4656,29.0938 Q40.6063,29.4219 39.8406,29.5469 Q39.0906,29.6719 38.075,29.6719 Q36.1531,29.6719 34.8406,28.875 Q33.5438,28.0625 32.8875,26.5938 Q32.2313,25.1094 32.2313,23.1406 Q32.2313,21.7188 32.6219,20.5469 Q33.0281,19.3594 33.8094,18.4844 Q34.5906,17.6094 35.7313,17.1406 Q36.8719,16.6563 38.3406,16.6563 Q39.2938,16.6563 40.1844,16.8594 Q41.0906,17.0469 42.0281,17.5156 L41.2,19.2969 Q40.4188,18.9219 39.7625,18.7344 Q39.1063,18.5313 38.3094,18.5313 Z " fill="#000000"/><text fill="#000000" font-family="sans-serif" font-size="14" lengthAdjust="spacing" textLength="61" x="55.8" y="28.432">Studente</text><line style="stroke:#181818;stroke-width:0.5;" x1="8" x2="135" y1="39" y2="39"/><text fill="#000000" font-family="sans-serif" font-size="14" lengthAdjust="spacing" textLength="117" x="13" y="57.9659">-matricola: String</text><text fill="#000000" font-family="sans-serif" font-size="14" lengthAdjust="spacing" textLength="92" x="13" y="77.0339">-nome: String</text><line style="stroke:#181818;stroke-width:0.5;" x1="8" x2="135" y1="85.1358" y2="85.1358"/></g><!--class Corso--><g id="elem_Corso"><rect codeLine="8" fill="#F1F1F1" height="86.1358" id="Corso" rx="2.5" ry="2.5" style="stroke:#181818;stroke-width:0.5;" width="109" x="17" y="153.13"/><ellipse cx="49.55" cy="169.13" fill="#ADD1B2" rx="11" ry="11" style="stroke:#181818;stroke-width:1.0;"/><path d="M49.6594,164.6613 Q48.7375,164.6613 48.0031,164.9738 Q47.2844,165.2863 46.7844,165.88 Q46.2844,166.4581 46.0031,167.3331 Q45.7375,168.2081 45.7375,169.3019 Q45.7375,170.7394 46.175,171.7863 Q46.6281,172.8331 47.4719,173.38 Q48.3313,173.9269 49.6438,173.9269 Q50.425,173.9269 51.1125,173.8019 Q51.8156,173.6613 52.8156,173.3488 L52.8156,175.2238 Q51.9563,175.5519 51.1906,175.6769 Q50.4406,175.8019 49.425,175.8019 Q47.5031,175.8019 46.1906,175.005 Q44.8938,174.1925 44.2375,172.7238 Q43.5813,171.2394 43.5813,169.2706 Q43.5813,167.8488 43.9719,166.6769 Q44.3781,165.4894 45.1594,164.6144 Q45.9406,163.7394 47.0813,163.2706 Q48.2219,162.7863 49.6906,162.7863 Q50.6438,162.7863 51.5344,162.9894 Q52.4406,163.1769 53.3781,163.6456 L52.55,165.4269 Q51.7688,165.0519 51.1125,164.8644 Q50.4563,164.6613 49.6594,164.6613 Z " fill="#000000"/><text fill="#000000" font-family="sans-serif" font-size="14" lengthAdjust="spacing" textLength="38" x="67.45" y="174.562">Corso</text><line style="stroke:#181818;stroke-width:0.5;" x1="18" x2="125" y1="185.13" y2="185.13"/><text fill="#000000" font-family="sans-serif" font-size="14" lengthAdjust="spacing" textLength="97" x="23" y="204.0959">-codice: String</text><text fill="#000000" font-family="sans-serif" font-size="14" lengthAdjust="spacing" textLength="88" x="23" y="223.1639">-titolo: String</text><line style="stroke:#181818;stroke-width:0.5;" x1="18" x2="125" y1="231.2658" y2="231.2658"/></g><!--link Studente to Corso--><g id="link_Studente_Corso"><path codeLine="13" d="M71.5,93.53 C71.5,112.3 71.5,134.31 71.5,153.04 " fill="none" id="Studente-Corso" style="stroke:#181818;stroke-width:1.0;"/><text fill="#000000" font-family="sans-serif" font-size="13" lengthAdjust="spacing" textLength="7" x="63.9859" y="115.1108">*</text><text fill="#000000" font-family="sans-serif" font-size="13" lengthAdjust="spacing" textLength="7" x="63.9203" y="141.4396">*</text></g><!--SRC=[LOsn2iCm34HtVuN8631qxbOoTSuNg8eeehPKR6LfwR_79DIqMWxkxkdgG_I91JDGmbelxaLkg_ELJ6TvCPn2s1EOVLrOdU4Te5s4ZArBbl3SiY9wFtorpDtvVEd9IhMEaYr2_C-1YrkoNxHF3kC0CUvoFDe0]--></g></svg>