<?xml version="1.0" encoding="us-ascii" standalone="no"?><svg xmlns="http://www.w3.org/2000/svg" xmlns:xlink="http://www.w3.org/1999/xlink" contentStyleType="text/css" height="392px" preserveAspectRatio="none" style="width:152px;height:392px;background:#FFFFFF;" version="1.1" viewBox="0 0 152 392" width="152px" zoomAndPan="magnify"><defs/><g><!--class Studente--><g id="elem_Studente"><rect codeLine="1" fill="#F1F1F1" height="67.0679" id="Studente" rx="2.5" ry="2.5" style="stroke:#181818;stroke-width:0.5;" width="138" x="7" y="7"/><ellipse cx="42.25" cy="23" fill="#ADD1B2" rx="11" ry="11" style="stroke:#181818;stroke-width:1.0;"/><path d="M42.3594,18.5313 Q41.4375,18.5313 40.7031,18.8438 Q39.9844,19.1563 39.4844,19.75 Q38.9844,20.3281 38.7031,21.2031 Q38.4375,22.0781 38.4375,23.1719 Q38.4375,24.6094 38.875,25.6563 Q39.3281,26.7031 40.1719,27.25 Q41.0313,27.7969 42.3438,27.7969 Q43.125,27.7969 43.8125,27.6719 Q44.5156,27.5313 45.5156,27.2188 L45.5156,29.0938 Q44.6563,29.4219 43.8906,29.5469 Q43.1406,29.6719 42.125,29.6719 Q40.2031,29.6719 38.8906,28.875 Q37.5938,28.0625 36.9375,26.5938 Q36.2813,25.1094 36.2813,23.1406 Q36.2813,21.7188 36.6719,20.5469 Q37.0781,19.3594 37.8594,18.4844 Q38.6406,17.6094 39.7813,17.1406 Q40.9219,16.6563 42.3906,16.6563 Q43.3438,16.6563 44.2344,16.8594 Q45.1406,17.0469 46.0781,17.5156 L45.25,19.2969 Q44.4688,18.9219 43.8125,18.7344 Q43.1563,18.5313 42.3594,18.5313 Z " fill="#000000"/><text fill="#000000" font-family="sans-serif" font-size="14" lengthAdjust="spacing" textLength="61" x="60.75" y="28.432">Studente</text><line style="stroke:#181818;stroke-width:0.5;" x1="8" x2="144" y1="39" y2="39"/><rect fill="none" height="6" style="stroke:#C82930;stroke-width:1.0;" width="6" x="15" y="51.034"/><text fill="#000000" font-family="sans-serif" font-size="14" lengthAdjust="spacing" textLength="112" x="27" y="57.9659">matricola: String</text><line style="stroke:#181818;stroke-width:0.5;" x1="8" x2="144" y1="66.0679" y2="66.0679"/></g><!--class Esame--><g id="elem_Esame"><rect codeLine="4" fill="#F1F1F1" height="86.1358" id="Esame" rx="2.5" ry="2.5" style="stroke:#181818;stroke-width:0.5;" width="95" x="28.5" y="153.07"/><ellipse cx="52.05" cy="169.07" fill="#ADD1B2" rx="11" ry="11" style="stroke:#181818;stroke-width:1.0;"/><path d="M52.1594,164.6013 Q51.2375,164.6013 50.5031,164.9138 Q49.7844,165.2263 49.2844,165.82 Q48.7844,166.3981 48.5031,167.2731 Q48.2375,168.1481 48.2375,169.2419 Q48.2375,170.6794 48.675,171.7263 Q49.1281,172.7731 49.9719,173.32 Q50.8313,173.8669 52.1438,173.8669 Q52.925,173.8669 53.6125,173.7419 Q54.3156,173.6013 55.3156,173.2888 L55.3156,175.1638 Q54.4563,175.4919 53.6906,175.6169 Q52.9406,175.7419 51.925,175.7419 Q50.0031,175.7419 48.6906,174.945 Q47.3938,174.1325 46.7375,172.6638 Q46.0813,171.1794 46.0813,169.2106 Q46.0813,167.7888 46.4719,166.6169 Q46.8781,165.4294 47.6594,164.5544 Q48.4406,163.6794 49.5813,163.2106 Q50.7219,162.7263 52.1906,162.7263 Q53.1438,162.7263 54.0344,162.9294 Q54.9406,163.1169 55.8781,163.5856 L55.05,165.3669 Q54.2688,164.9919 53.6125,164.8044 Q52.9563,164.6013 52.1594,164.6013 Z " fill="#000000"/><text fill="#000000" font-family="sans-serif" font-size="14" lengthAdjust="spacing" textLength="44" x="67.95" y="174.502">Esame</text><line style="stroke:#181818;stroke-width:0.5;" x1="29.5" x2="122.5" y1="185.07" y2="185.07"/><rect fill="none" height="6" style="stroke:#C82930;stroke-width:1.0;" width="6" x="36.5" y="197.104"/><text fill="#000000" font-family="sans-serif" font-size="14" lengthAdjust="spacing" textLength="54" x="48.5" y="204.0359">voto: int</text><rect fill="none" height="6" style="stroke:#C82930;stroke-width:1.0;" width="6" x="36.5" y="216.1719"/><text fill="#000000" font-family="sans-serif" font-size="14" lengthAdjust="spacing" textLength="69" x="48.5" y="223.1039">data: Date</text><line style="stroke:#181818;stroke-width:0.5;" x1="29.5" x2="122.5" y1="231.2058" y2="231.2058"/></g><!--class Corso--><g id="elem_Corso"><rect codeLine="8" fill="#F1F1F1" height="67.0679" id="Corso" rx="2.5" ry="2.5" style="stroke:#181818;stroke-width:0.5;" width="118" x="17" y="318.2"/><ellipse cx="53.6" cy="334.2" fill="#ADD1B2" rx="11" ry="11" style="stroke:#181818;stroke-width:1.0;"/><path d="M53.7094,329.7313 Q52.7875,329.7313 52.0531,330.0438 Q51.3344,330.3563 50.8344,330.95 Q50.3344,331.5281 50.0531,332.4031 Q49.7875,333.2781 49.7875,334.3719 Q49.7875,335.8094 50.225,336.8563 Q50.6781,337.9031 51.5219,338.45 Q52.3813,338.9969 53.6938,338.9969 Q54.475,338.9969 55.1625,338.8719 Q55.8656,338.7313 56.8656,338.4188 L56.8656,340.2938 Q56.0063,340.6219 55.2406,340.7469 Q54.4906,340.8719 53.475,340.8719 Q51.5531,340.8719 50.2406,340.075 Q48.9438,339.2625 48.2875,337.7938 Q47.6313,336.3094 47.6313,334.3406 Q47.6313,332.9188 48.0219,331.7469 Q48.4281,330.5594 49.2094,329.6844 Q49.9906,328.8094 51.1313,328.3406 Q52.2719,327.8563 53.7406,327.8563 Q54.6938,327.8563 55.5844,328.0594 Q56.4906,328.2469 57.4281,328.7156 L56.6,330.4969 Q55.8188,330.1219 55.1625,329.9344 Q54.5063,329.7313 53.7094,329.7313 Z " fill="#000000"/><text fill="#000000" font-family="sans-serif" font-size="14" lengthAdjust="spacing" textLength="38" x="72.4" y="339.632">Corso</text><line style="stroke:#181818;stroke-width:0.5;" x1="18" x2="134" y1="350.2" y2="350.2"/><rect fill="none" height="6" style="stroke:#C82930;stroke-width:1.0;" width="6" x="25" y="362.234"/><text fill="#000000" font-family="sans-serif" font-size="14" lengthAdjust="spacing" textLength="92" x="37" y="369.1659">codice: String</text><line style="stroke:#181818;stroke-width:0.5;" x1="18" x2="134" y1="377.2679" y2="377.2679"/></g><!--link Studente to Esame--><g id="link_Studente_Esame"><path codeLine="11" d="M76,74.48 C76,97.31 76,127.92 76,152.59 " fill="none" id="Studente-Esame" style="stroke:#181818;stroke-width:1.0;"/><text fill="#000000" font-family="sans-serif" font-size="13" lengthAdjust="spacing" textLength="50" x="77" y="118.967">sostiene</text><text fill="#000000" font-family="sans-serif" font-size="13" lengthAdjust="spacing" textLength="7" x="68.3766" y="96.0006">1</text><text fill="#000000" font-family="sans-serif" font-size="13" lengthAdjust="spacing" textLength="7" x="68.4422" y="141.2481">*</text></g><!--link Esame to Corso--><g id="link_Esame_Corso"><path codeLine="12" d="M76,239.51 C76,264.2 76,294.87 76,317.74 " fill="none" id="Esame-Corso" style="stroke:#181818;stroke-width:1.0;"/><text fill="#000000" font-family="sans-serif" font-size="13" lengthAdjust="spacing" textLength="55" x="77" y="284.097">relativo a</text><text fill="#000000" font-family="sans-serif" font-size="13" lengthAdjust="spacing" textLength="7" x="68.4859" y="261.0776">*</text><text fill="#000000" font-family="sans-serif" font-size="13" lengthAdjust="spacing" textLength="7" x="68.3109" y="306.3405">1</text></g><!--SRC=[JOqn3W8n30JxlC9AYPI2DYtm0bvWEHQob8kbs5o3-3ivxXHmjzxPNQfe1dT_5cxEy0emBi62teMqOXvUb_O8xq1Vz6Qu_BXLNJD8yqCNz16velCCNBIRpW1f4UA_rZaTpn5IWdYAnqO6KtFXnc5_RDP6370lpT2veikgW1y0]--></g></svg>