<?xml version="1.0" encoding="us-ascii" standalone="no"?><svg xmlns="http://www.w3.org/2000/svg" xmlns:xlink="http://www.w3.org/1999/xlink" contentStyleType="text/css" height="265px" preserveAspectRatio="none" style="width:146px;height:265px;background:#FFFFFF;" version="1.1" viewBox="0 0 146 265" width="146px" zoomAndPan="magnify"><defs/><g><!--class Studente--><g id="elem_Studente"><rect codeLine="3" fill="#F1F1F1" height="86.1358" id="Studente" rx="2.5" ry="2.5" style="stroke:#181818;stroke-width:0.5;" width="132" x="7" y="7"/><ellipse cx="39.55" cy="23" fill="#ADD1B2" rx="11" ry="11" style="stroke:#181818;stroke-width:1.0;"/><path d="M39.6594,18.5313 Q38.7375,18.5313 38.0031,18.8438 Q37.2844,19.1563 36.7844,19.75 Q36.2844,20.3281 36.0031,21.2031 Q35.7375,22.0781 35.7375,23.1719 Q35.7375,24.6094 36.175,25.6563 Q36.6281,26.7031 37.4719,27.25 Q38.3313,27.7969 39.6438,27.7969 Q40.425,27.7969 41.1125,27.6719 Q41.8156,27.5313 42.8156,27.2188 L42.8156,29.0938 Q41.9563,29.4219 41.1906,29.5469 Q40.4406,29.6719 39.425,29.6719 Q37.5031,29.6719 36.1906,28.875 Q34.8938,28.0625 34.2375,26.5938 Q33.5813,25.1094 33.5813,23.1406 Q33.5813,21.7188 33.9719,20.5469 Q34.3781,19.3594 35.1594,18.4844 Q35.9406,17.6094 37.0813,17.1406 Q38.2219,16.6563 39.6906,16.6563 Q40.6438,16.6563 41.5344,16.8594 Q42.4406,17.0469 43.3781,17.5156 L42.55,19.2969 Q41.7688,18.9219 41.1125,18.7344 Q40.4563,18.5313 39.6594,18.5313 Z " fill="#000000"/><text fill="#000000" font-family="sans-serif" font-size="14" lengthAdjust="spacing" textLength="61" x="57.45" y="28.432">Studente</text><line style="stroke:#181818;stroke-width:0.5;" x1="8" x2="138" y1="39" y2="39"/><text fill="#000000" font-family="sans-serif" font-size="14" lengthAdjust="spacing" textLength="120" x="13" y="57.9659">+matricola: String</text><text fill="#000000" font-family="sans-serif" font-size="14" lengthAdjust="spacing" textLength="95" x="13" y="77.0339">+nome: String</text><line style="stroke:#181818;stroke-width:0.5;" x1="8" x2="138" y1="85.1358" y2="85.1358"/></g><!--class Corso--><g id="elem_Corso"><rect codeLine="8" fill="#F1F1F1" height="86.1358" id="Corso" rx="2.5" ry="2.5" style="stroke:#181818;stroke-width:0.5;" width="112" x="17" y="172.13"/><ellipse cx="50.9" cy="188.13" fill="#ADD1B2" rx="11" ry="11" style="stroke:#181818;stroke-width:1.0;"/><path d="M51.0094,183.6613 Q50.0875,183.6613 49.3531,183.9738 Q48.6344,184.2863 48.1344,184.88 Q47.6344,185.4581 47.3531,186.3331 Q47.0875,187.2081 47.0875,188.3019 Q47.0875,189.7394 47.525,190.7863 Q47.9781,191.8331 48.8219,192.38 Q49.6813,192.9269 50.9938,192.9269 Q51.775,192.9269 52.4625,192.8019 Q53.1656,192.6613 54.1656,192.3488 L54.1656,194.2238 Q53.3063,194.5519 52.5406,194.6769 Q51.7906,194.8019 50.775,194.8019 Q48.8531,194.8019 47.5406,194.005 Q46.2438,193.1925 45.5875,191.7238 Q44.9313,190.2394 44.9313,188.2706 Q44.9313,186.8488 45.3219,185.6769 Q45.7281,184.4894 46.5094,183.6144 Q47.2906,182.7394 48.4313,182.2706 Q49.5719,181.7863 51.0406,181.7863 Q51.9938,181.7863 52.8844,181.9894 Q53.7906,182.1769 54.7281,182.6456 L53.9,184.4269 Q53.1188,184.0519 52.4625,183.8644 Q51.8063,183.6613 51.0094,183.6613 Z " fill="#000000"/><text fill="#000000" font-family="sans-serif" font-size="14" lengthAdjust="spacing" textLength="38" x="69.1" y="193.562">Corso</text><line style="stroke:#181818;stroke-width:0.5;" x1="18" x2="128" y1="204.13" y2="204.13"/><text fill="#000000" font-family="sans-serif" font-size="14" lengthAdjust="spacing" textLength="100" x="23" y="223.0959">+codice: String</text><text fill="#000000" font-family="sans-serif" font-size="14" lengthAdjust="spacing" textLength="91" x="23" y="242.1639">+titolo: String</text><line style="stroke:#181818;stroke-width:0.5;" x1="18" x2="128" y1="250.2658" y2="250.2658"/></g><!--link Studente to Corso--><g id="link_Studente_Corso"><path codeLine="13" d="M73,93.5 C73,117.58 73,147.61 73,171.7 " fill="none" id="Studente-Corso" style="stroke:#181818;stroke-width:1.0;"/><polygon fill="#000000" points="78,137.983,80.9389,128.9379,75.0611,128.9379,78,137.983" style="stroke:#000000;stroke-width:1.0;"/><text fill="#000000" font-family="sans-serif" font-size="13" lengthAdjust="spacing" textLength="50" x="87" y="138.027">sostiene</text><text fill="#000000" font-family="sans-serif" font-size="13" lengthAdjust="spacing" textLength="7" x="65.4859" y="115.0764">*</text><text fill="#000000" font-family="sans-serif" font-size="13" lengthAdjust="spacing" textLength="7" x="65.4422" y="160.3661">*</text></g><!--SRC=[NOt12i9034Jl-nMXHwNWkOU2UFBSBrZJK8AxYMpIY-A_krHTn5m6PkPbxCfoYoLcm1JDZkw5BwlJ6LKclXCSGjWIc7oTIPpW4Q3U7dAiNTGKXveLbkNZYsPgrlEBdxIODXPrPgG_qDarwI_QDhjT1ts_oVlH0ARcJ48mlW00]--></g></svg>